<svg xmlns="http://www.w3.org/2000/svg" width="32" height="32" viewBox="0 0 32 32" fill="none">
  <path fill="#888"
    d="M22.0687,8.61933l2.05,5.39997l2.57,1.08c1.97,0.73 2.5,3.19 0.24,3.7c-1.33,0.29 -2.63,0.54 -3.92,0.72c-0.32,3.68 -1.36,6.84 -4.14,4.92c-1.09,-0.67 -1.89,-1.63 -2.85,-1.63c-0.96,0 -3.48,2.81 -5,2.09c-1.25004,-0.55 -1.73004,-3.26 -1.89004,-5.46c-1.22,-0.18 -2.44,-0.4 -3.64,-0.64c-1.06,-0.21 -1.66,-1.31 -1.43,-2.1c0.22,-0.79 0.75,-1.33 1.43,-1.58l2.78,-1.11c0.82,-2.18 1.49,-3.94 2.01004,-5.30997c0.78,-2.04 2.83,-2.04 4.09,-1.04c0.65,0.52 1.08,0.96 1.63,0.97c0.55,0.01 1.08,-0.45 1.76,-0.97c1.32,-1 3.23,-1 4.31,0.96zM18.3287,22.0093c2.3,0.98 2.58,-1.6 2.53,-1.87c-0.11,-0.18 -2.64,0.42 -2.99,0.71c-0.34,0.29 -0.5,0.58 0.46,1.16zM13.5887,21.9993c1.15,-0.7 0.62,-1.02 0.43,-1.18c-0.85,-0.39 -2.86,-0.87 -2.96,-0.69c-0.02,0.62 0.36,2.8 2.53,1.87z">
  </path>
</svg>